<?xml version="1.0" encoding="UTF-8" standalone="no"?>
<!DOCTYPE svg PUBLIC "-//W3C//DTD SVG 1.1//EN" "http://www.w3.org/Graphics/SVG/1.1/DTD/svg11.dtd">
<svg width="100%" height="100%" viewBox="0 0 1945 359" version="1.1" xmlns="http://www.w3.org/2000/svg" xmlns:xlink="http://www.w3.org/1999/xlink" xml:space="preserve" xmlns:serif="http://www.serif.com/" style="fill-rule:evenodd;clip-rule:evenodd;stroke-linejoin:round;stroke-miterlimit:2;">
    <g transform="matrix(1,0,0,1,-2400,-600)">
        <g id="Logo-Name-Blobs" transform="matrix(0.762417,0,0,0.415002,-11577,600)">
            <rect x="18332.4" y="0" width="2550" height="863.128" style="fill:none;"/>
            <g transform="matrix(1.63485e-16,-4.90501,2.66991,3.00345e-16,16469.5,42786.2)">
                <g transform="matrix(3.76429e-17,0.614755,-0.614755,3.76429e-17,9418.79,-8251.5)">
                    <g transform="matrix(0.844239,-6.13687e-33,-5.24717e-33,0.844239,8083.49,-7326.11)">
                        <circle cx="7837" cy="10188" r="119" style="fill:white;"/>
                        <clipPath id="_clip1">
                            <circle cx="7837" cy="10188" r="119"/>
                        </clipPath>
                        <g clip-path="url(#_clip1)">
                            <g transform="matrix(0.526459,0,0,0.526459,-1491.51,4920.58)">
                                <g transform="matrix(1,0,0,1,1981.21,112.948)">
                                    <circle cx="15702.2" cy="9915.2" r="204.202" style="fill:rgb(255,196,6);"/>
                                </g>
                                <g transform="matrix(-1,1.22465e-16,-1.22465e-16,-1,33051,19911.8)">
                                    <circle cx="15702.2" cy="9915.2" r="204.202" style="fill:rgb(190,33,33);"/>
                                </g>
                                <g transform="matrix(-1,1.22465e-16,-1.22465e-16,-1,33459.4,20224.6)">
                                    <circle cx="15702.2" cy="9915.2" r="204.202" style="fill:rgb(190,33,33);"/>
                                </g>
                                <g transform="matrix(0.59354,0,0,0.59354,8592.33,4088.33)">
                                    <circle cx="15702.2" cy="9915.2" r="204.202" style="fill:rgb(50,146,47);"/>
                                </g>
                                <g transform="matrix(0.713987,0,0,0.713987,6676.44,2698.82)">
                                    <circle cx="15702.2" cy="9915.2" r="204.202" style="fill:rgb(0,130,199);"/>
                                </g>
                                <g transform="matrix(0.713987,0,0,0.713987,6292.63,3094.62)">
                                    <circle cx="15702.2" cy="9915.2" r="204.202" style="fill:rgb(0,130,199);"/>
                                </g>
                                <g transform="matrix(-0.713987,8.74383e-17,-8.74383e-17,-0.713987,28739.6,16930.1)">
                                    <circle cx="15702.2" cy="9915.2" r="204.202" style="fill:white;"/>
                                </g>
                                <g transform="matrix(-0.713987,8.74383e-17,-8.74383e-17,-0.713987,29148,17242.9)">
                                    <circle cx="15702.2" cy="9915.2" r="204.202" style="fill:white;"/>
                                </g>
                                <g transform="matrix(0.322007,0,0,0.322007,12664.2,6631.19)">
                                    <circle cx="15702.2" cy="9915.2" r="204.202" style="fill:white;"/>
                                </g>
                                <g transform="matrix(-0.322007,3.94344e-17,-3.94344e-17,-0.322007,22751.8,12997.8)">
                                    <circle cx="15702.2" cy="9915.2" r="204.202" style="fill:rgb(255,196,6);"/>
                                </g>
                            </g>
                        </g>
                    </g>
                    <g transform="matrix(2.98375,0,0,2.98375,-9083.29,-28619.5)">
                        <path d="M8010.77,9979.23L8010.77,10059L7931,10059L7931,9979.23L8010.77,9979.23ZM7970.88,9985.88C7952.54,9985.88 7937.65,10000.8 7937.65,10019.1C7937.65,10037.5 7952.54,10052.4 7970.88,10052.4C7989.23,10052.4 8004.12,10037.5 8004.12,10019.1C8004.12,10000.8 7989.23,9985.88 7970.88,9985.88Z"/>
                    </g>
                </g>
                <g>
                    <g transform="matrix(2.21432e-17,0.361627,-0.361627,2.21432e-17,8697.33,943.359)">
                        <path d="M-3.044,192.993L54.242,192.993L54.242,163.205L-32.603,163.205L-32.603,333L54.242,333L54.242,303.211L-3.044,303.211L-3.044,262.882L54.242,262.882L54.242,233.323L-3.044,233.323L-3.044,192.993Z" style="fill-rule:nonzero;"/>
                        <path d="M176.605,163.205L146.816,163.205L124.589,281.672L102.362,163.205L72.574,163.205L104.424,333L144.754,333L176.605,163.205Z" style="fill-rule:nonzero;"/>
                        <path d="M224.954,192.993L282.24,192.993L282.24,163.205L195.394,163.205L195.394,333L282.24,333L282.24,303.211L224.954,303.211L224.954,262.882L282.24,262.882L282.24,233.323L224.954,233.323L224.954,192.993Z" style="fill-rule:nonzero;"/>
                        <path d="M350.066,271.36L377.105,333L411.248,333L381.917,265.861C398.645,257.612 410.102,240.426 410.102,220.72L410.102,214.304C410.102,186.119 387.188,163.205 358.774,163.205L308.133,163.205L308.133,333L337.922,333L337.922,271.36L350.066,271.36ZM337.922,192.993L358.774,192.993C370.46,192.993 380.084,202.388 380.313,214.304L380.313,220.72C380.313,231.948 370.46,241.572 358.774,241.801L337.922,241.801L337.922,192.993Z" style="fill-rule:nonzero;"/>
                        <path d="M522.84,163.205L490.99,163.205L467.388,225.303L444.244,163.205L412.393,163.205L452.493,264.944L452.493,333L482.282,333L482.282,264.944L522.84,163.205Z" style="fill-rule:nonzero;"/>
                        <path d="M576.918,162.059C549.192,162.059 526.278,184.973 526.278,213.387L526.278,283.276C526.278,311.002 549.192,333.917 576.918,333.917C605.103,333.917 628.017,311.002 628.017,283.276L628.017,213.387C628.017,184.973 605.103,162.059 576.918,162.059ZM576.918,304.357C565.69,304.357 556.066,296.795 555.837,283.276L555.837,213.387C555.837,201.93 565.461,192.077 576.918,191.848C588.376,191.848 598.229,201.701 598.458,213.387L598.458,283.276C598.458,294.504 588.605,304.128 576.918,304.357Z" style="fill-rule:nonzero;"/>
                        <path d="M749.234,163.205L719.675,163.205L719.675,263.57L677.283,163.205L647.495,163.205L647.495,333L677.054,333L677.054,232.635L719.446,333L749.234,333L749.234,163.205Z" style="fill-rule:nonzero;"/>
                        <path d="M802.854,192.993L860.14,192.993L860.14,163.205L773.294,163.205L773.294,333L860.14,333L860.14,303.211L802.854,303.211L802.854,262.882L860.14,262.882L860.14,233.323L802.854,233.323L802.854,192.993Z" style="fill-rule:nonzero;"/>
                        <path d="M910.835,163.09L881.972,163.09L881.764,216.662L910.835,216.662L910.835,163.09Z" style="fill-rule:nonzero;"/>
                        <path d="M972.617,303.211C984.074,303.211 992.324,296.337 992.324,286.484C992.324,271.59 967.347,266.09 948.328,255.091C934.809,247.529 921.977,232.864 921.977,212.241C921.977,184.057 944.891,163.205 972.617,163.205C1000.8,163.205 1023.72,186.119 1023.72,214.304L994.157,214.304C993.469,202.617 984.304,192.993 972.617,192.993C960.931,192.993 953.14,198.722 953.14,210.179C953.14,223.011 974.45,229.656 992.094,239.051C1007.45,247.529 1023.72,261.278 1023.72,284.422C1023.72,312.148 1000.8,333 972.617,333C944.891,333 921.977,310.086 921.977,282.13L951.536,282.13C951.994,293.587 961.16,303.211 972.617,303.211Z" style="fill-rule:nonzero;"/>
                        <path d="M1160.97,230.115L1190.76,230.115L1190.76,213.387C1190.76,184.973 1167.85,162.059 1139.66,162.059C1111.94,162.059 1089.02,184.973 1089.02,213.387L1089.02,283.276C1089.02,311.002 1111.94,333.917 1139.66,333.917C1167.85,333.917 1190.76,311.002 1190.76,283.276L1190.76,266.09L1160.97,266.09L1160.97,283.276C1160.97,294.504 1151.35,304.128 1139.66,304.357C1128.43,304.357 1118.81,296.795 1118.58,283.276L1118.58,213.387C1118.58,201.93 1128.21,192.077 1139.66,191.848C1151.12,191.848 1160.74,201.701 1160.97,213.387L1160.97,230.115Z" style="fill-rule:nonzero;"/>
                        <path d="M1251.03,271.36L1278.07,333L1312.21,333L1282.88,265.861C1299.61,257.612 1311.06,240.426 1311.06,220.72L1311.06,214.304C1311.06,186.119 1288.15,163.205 1259.73,163.205L1209.09,163.205L1209.09,333L1238.88,333L1238.88,271.36L1251.03,271.36ZM1238.88,192.993L1259.73,192.993C1271.42,192.993 1281.04,202.388 1281.27,214.304L1281.27,220.72C1281.27,231.948 1271.42,241.572 1259.73,241.801L1238.88,241.801L1238.88,192.993Z" style="fill-rule:nonzero;"/>
                        <path d="M1356.66,192.993L1413.95,192.993L1413.95,163.205L1327.1,163.205L1327.1,333L1413.95,333L1413.95,303.211L1356.66,303.211L1356.66,262.882L1413.95,262.882L1413.95,233.323L1356.66,233.323L1356.66,192.993Z" style="fill-rule:nonzero;"/>
                        <path d="M1510.88,290.608L1521.19,333L1550.98,333L1509.5,163.205L1469.17,163.205L1427.7,333L1457.49,333L1467.8,290.608L1510.88,290.608ZM1504.23,263.111L1474.67,263.111L1489.34,202.617L1504.23,263.111Z" style="fill-rule:nonzero;"/>
                        <path d="M1643.55,192.993L1643.55,163.205L1541.81,163.205L1541.81,192.993L1577.79,192.993L1577.79,333L1607.57,333L1607.57,192.993L1643.55,192.993Z" style="fill-rule:nonzero;"/>
                        <rect x="1665.09" y="163.205" width="29.789" height="169.795" style="fill-rule:nonzero;"/>
                        <path d="M1821.14,163.205L1791.35,163.205L1769.12,281.672L1746.89,163.205L1717.1,163.205L1748.95,333L1789.29,333L1821.14,163.205Z" style="fill-rule:nonzero;"/>
                        <path d="M1867.88,192.993L1925.17,192.993L1925.17,163.205L1838.32,163.205L1838.32,333L1925.17,333L1925.17,303.211L1867.88,303.211L1867.88,262.882L1925.17,262.882L1925.17,233.323L1867.88,233.323L1867.88,192.993Z" style="fill-rule:nonzero;"/>
                    </g>
                    <g transform="matrix(1.12652e-17,0.183974,-0.183974,1.12652e-17,8723.56,861.544)">
                        <path d="M425.668,303.211C437.125,303.211 445.374,296.337 445.374,286.484C445.374,271.59 420.397,266.09 401.378,255.091C387.859,247.529 375.027,232.864 375.027,212.241C375.027,184.057 397.941,163.205 425.668,163.205C453.852,163.205 476.767,186.119 476.767,214.304L447.207,214.304C446.52,202.617 437.354,192.993 425.668,192.993C413.981,192.993 406.19,198.722 406.19,210.179C406.19,223.011 427.501,229.656 445.145,239.051C460.498,247.529 476.767,261.278 476.767,284.422C476.767,312.148 453.852,333 425.668,333C397.941,333 375.027,310.086 375.027,282.13L404.586,282.13C405.045,293.587 414.211,303.211 425.668,303.211Z" style="fill-rule:nonzero;"/>
                        <path d="M514.346,156.789C504.264,156.789 496.244,165.038 496.244,175.12C496.244,184.973 504.264,192.993 514.346,192.993C524.429,192.993 532.678,184.973 532.678,175.12C532.678,165.038 524.429,156.789 514.346,156.789ZM529.241,333L529.241,204.68L499.452,204.68L499.452,333L529.241,333Z" style="fill-rule:nonzero;"/>
                        <path d="M665.352,203.534C655.04,203.534 643.354,208.346 635.105,217.283C627.772,208.575 617.003,203.534 605.774,203.534C597.525,203.534 589.734,206.742 583.548,212.7L583.548,204.45L553.759,204.45L553.759,333L583.548,333L583.548,247.988C583.548,239.739 591.338,233.323 599.358,233.323C608.295,233.323 615.399,239.739 615.399,247.988L615.399,333L645.187,333L645.187,247.529C645.416,239.509 652.978,233.323 660.998,233.323C669.935,233.323 676.809,239.739 676.809,247.988L676.809,333L706.598,333L706.598,247.988C707.285,220.72 688.266,203.534 665.352,203.534Z" style="fill-rule:nonzero;"/>
                        <path d="M815.212,248.217L814.982,248.217C814.982,223.699 795.047,203.763 770.529,203.763C746.01,203.763 726.075,223.699 726.075,248.217L726.075,288.546C726.075,313.294 746.01,333.229 770.529,333.229C795.047,333.229 814.982,313.294 814.982,288.546L815.212,288.546L815.212,248.217ZM785.652,288.546L785.423,288.546C785.423,296.795 779.007,303.44 770.529,303.44C762.279,303.44 755.634,296.795 755.634,288.546L755.634,248.217C755.634,239.968 762.738,233.552 770.529,233.552C778.778,233.552 785.423,239.968 785.423,248.217L785.652,248.217L785.652,288.546Z" style="fill-rule:nonzero;"/>
                        <path d="M886.704,203.534C878.455,203.534 870.435,206.742 864.248,212.7L864.248,204.68L834.46,204.68L834.46,333L864.248,333L864.248,247.988C864.248,239.739 872.268,233.323 880.288,233.323C889.225,233.323 896.099,239.739 896.099,247.988L896.099,333L925.888,333L925.888,247.988C925.888,220.72 907.556,203.534 886.704,203.534Z" style="fill-rule:nonzero;"/>
                        <path d="M1009.52,163.205L1009.52,333L1039.31,333L1039.31,271.36L1060.39,271.36C1088.58,271.36 1111.49,248.446 1111.49,220.72L1111.49,214.304C1111.49,186.119 1088.58,163.205 1060.39,163.205L1009.52,163.205ZM1039.31,241.801L1039.31,192.993L1060.39,192.993C1072.08,192.993 1081.48,202.388 1081.71,214.304L1081.71,220.72C1081.71,231.948 1072.08,241.572 1060.39,241.801L1039.31,241.801Z" style="fill-rule:nonzero;"/>
                        <path d="M1169.01,203.534C1144.26,203.534 1124.33,223.469 1124.33,247.988L1124.33,289.463C1124.33,313.981 1140.6,333.917 1167.63,333.917C1192.15,333.917 1213.46,313.981 1213.46,289.463L1184.82,289.463C1184.82,299.774 1177.49,305.274 1169.01,305.274C1160.76,305.274 1154.12,299.774 1154.12,289.463L1154.12,277.547L1213.46,277.547L1213.46,247.988C1213.46,223.469 1193.53,203.534 1169.01,203.534ZM1184.82,252.8L1154.12,252.8L1154.12,247.988C1154.12,237.676 1160.99,231.719 1169.01,231.719C1177.26,231.719 1184.82,237.676 1184.82,247.988L1184.82,252.8Z" style="fill-rule:nonzero;"/>
                        <path d="M1283.58,203.534C1275.33,203.534 1267.31,206.742 1261.12,212.7L1261.12,204.68L1231.34,204.68L1231.34,333L1261.12,333L1261.12,247.988C1261.12,239.739 1269.14,233.323 1277.16,233.323C1286.1,233.323 1292.98,239.739 1292.98,247.988L1292.98,333L1322.76,333L1322.76,247.988C1322.76,220.72 1304.43,203.534 1283.58,203.534Z" style="fill-rule:nonzero;"/>
                        <path d="M1431.15,204.68L1401.36,204.68L1401.36,212.012C1395.63,206.513 1388.3,203.534 1380.28,203.534C1359.2,203.534 1341.33,220.72 1342.01,247.988L1342.01,288.317C1341.33,315.814 1354.85,333 1377.99,333C1386.47,333 1394.94,329.563 1401.36,323.376L1401.36,341.478C1401.36,349.957 1394.72,356.373 1386.47,356.373C1378.22,356.373 1371.8,349.727 1371.8,341.478L1342.01,341.478C1342.01,365.997 1361.95,385.932 1386.47,385.932C1411.21,385.932 1431.15,365.997 1431.15,341.478L1431.15,204.68ZM1386.47,303.211C1378.67,303.211 1371.8,296.566 1371.8,288.317L1371.8,247.988C1371.8,239.739 1378.67,233.323 1386.47,233.323C1394.72,233.323 1401.36,239.739 1401.36,247.988L1401.36,288.317C1401.36,296.566 1394.72,303.211 1386.47,303.211Z" style="fill-rule:nonzero;"/>
                    </g>
                </g>
            </g>
        </g>
    </g>
</svg>
